<?xml version="1.0" encoding="utf-8"?>
<!-- Generator: Adobe Illustrator 28.3.0, SVG Export Plug-In . SVG Version: 6.00 Build 0)  -->
<svg version="1.1" id="Layer_1" xmlns="http://www.w3.org/2000/svg" xmlns:xlink="http://www.w3.org/1999/xlink" x="0px" y="0px"
	 viewBox="0 0 1504 132" style="enable-background:new 0 0 1504 132;" xml:space="preserve">
<g>
	<path d="M59.7378,122.7637V16.4556H7.7148v-6.2397h111.0659v6.2397H66.7578v106.3081H59.7378z"/>
	<path d="M182.0386,124.5576c-12.896,0-24.2056-2.3657-33.9282-7.0977c-9.7236-4.731-17.2891-11.4653-22.6968-20.2007
		c-5.4082-8.7358-8.1113-19.0044-8.1113-30.8086v-0.1558c0-11.7505,2.7031-21.9561,8.1113-30.6133
		c5.4077-8.6577,12.9731-15.3652,22.6968-20.123c9.7227-4.7578,21.0322-7.1362,33.9282-7.1362
		c12.9473,0,24.2822,2.3784,34.0059,7.1362c9.7227,4.7578,17.2886,11.479,22.6968,20.1621
		c5.4072,8.6841,8.1118,18.875,8.1118,30.5742v0.1558c0,11.8042-2.7046,22.0728-8.1118,30.8086
		c-5.4082,8.7354-12.9604,15.4697-22.6577,20.2007C206.3853,122.1919,195.0371,124.5576,182.0386,124.5576z M182.0386,118.2397
		c11.4907,0,21.5659-2.1445,30.2231-6.4346c8.6577-4.2896,15.3911-10.3076,20.2012-18.0557
		c4.8086-7.7476,7.2144-16.8472,7.2144-27.2988v-0.1558c0-10.5024-2.418-19.5894-7.2534-27.2593
		c-4.8359-7.6694-11.5825-13.6362-20.2397-17.9004c-8.6577-4.2627-18.707-6.3955-30.1455-6.3955
		c-11.4922,0-21.5537,2.1328-30.1841,6.3955c-8.6323,4.2642-15.3652,10.2446-20.2012,17.939
		c-4.8354,7.6963-7.2534,16.769-7.2534,27.2207v0.1558c0,10.5039,2.418,19.6294,7.2534,27.3765
		c4.8359,7.7485,11.5825,13.7544,20.2397,18.0171C160.5508,116.1084,170.5986,118.2397,182.0386,118.2397z"/>
	<path d="M297.3677,122.7637V16.4556h-52.0229v-6.2397h111.0659v6.2397h-52.0229v106.3081H297.3677z"/>
	<path d="M341.4248,122.7637l57.3267-112.5479h5.772v7.5659h-1.9502l-53.583,104.9819H341.4248z M364.1216,85.6377l2.8857-6.0054
		h71.0542l2.8076,6.0054H364.1216z M456.1562,122.7637L402.6514,17.7817v-7.5659h3.666l57.4048,112.5479H456.1562z"/>
	<path d="M472.6274,122.7637V10.2158h7.0195v106.3081h79.3999v6.2397H472.6274z"/>
	<path d="M614.4233,122.7637V10.2158h8.1118l57.5605,104.5923h0.3901l57.4829-104.5923h8.1113v112.5479h-6.7852V21.9932h-3.5879
		l8.2676-9.3594l-60.5249,110.1299h-6.3179L616.6074,12.6338l8.1895,9.3594h-3.5098v100.7705H614.4233z"/>
	<path d="M763.7012,122.7637V10.2158h7.0195v112.5479H763.7012z"/>
	<path d="M780.4336,122.7637l54.7529-58.3408l-2.2617,5.1479v-3.1201l-52.4131-56.2349h9.0479l48.0449,51.5552h3.3545l-5.0703,2.418
		l50.3076-53.9731h8.9697L842.5186,66.373v3.1196l-2.2617-5.2256l54.5967,58.4966h-8.9697L837.917,71.4424h-3.2764l5.0703-2.3398
		l-50.4639,53.6611H780.4336z"/>
	<path d="M958.4854,124.5576c-12.8965,0-24.2051-2.3657-33.9277-7.0977c-9.7246-4.731-17.29-11.4653-22.6973-20.2007
		c-5.4082-8.7358-8.1113-19.0044-8.1113-30.8086v-0.1558c0-11.7505,2.7031-21.9561,8.1113-30.6133
		c5.4072-8.6577,12.9727-15.3652,22.6973-20.123c9.7227-4.7578,21.0312-7.1362,33.9277-7.1362
		c12.9473,0,24.2822,2.3784,34.0059,7.1362c9.7227,4.7578,17.2881,11.479,22.6973,20.1621
		c5.4072,8.6841,8.1113,18.875,8.1113,30.5742v0.1558c0,11.8042-2.7041,22.0728-8.1113,30.8086
		c-5.4092,8.7354-12.9609,15.4697-22.6582,20.2007C982.832,122.1919,971.4834,124.5576,958.4854,124.5576z M958.4854,118.2397
		c11.4912,0,21.5654-2.1445,30.2236-6.4346c8.6572-4.2896,15.3906-10.3076,20.2002-18.0557
		c4.8096-7.7476,7.2148-16.8472,7.2148-27.2988v-0.1558c0-10.5024-2.418-19.5894-7.2539-27.2593
		c-4.835-7.6694-11.582-13.6362-20.2393-17.9004c-8.6582-4.2627-18.707-6.3955-30.1455-6.3955
		c-11.4922,0-21.5537,2.1328-30.1846,6.3955c-8.6318,4.2642-15.3652,10.2446-20.2002,17.939
		c-4.8359,7.6963-7.2539,16.769-7.2539,27.2207v0.1558c0,10.5039,2.418,19.6294,7.2539,27.3765
		c4.835,7.7485,11.582,13.7544,20.2393,18.0171C936.998,116.1084,947.0459,118.2397,958.4854,118.2397z"/>
	<path d="M1035.7949,122.7637V10.2158h7.0195v106.3081h79.3994v6.2397H1035.7949z"/>
	<path d="M1187.7812,124.5576c-12.8965,0-24.2051-2.3657-33.9277-7.0977c-9.7246-4.731-17.29-11.4653-22.6973-20.2007
		c-5.4082-8.7358-8.1113-19.0044-8.1113-30.8086v-0.1558c0-11.7505,2.7031-21.9561,8.1113-30.6133
		c5.4072-8.6577,12.9727-15.3652,22.6973-20.123c9.7227-4.7578,21.0312-7.1362,33.9277-7.1362
		c12.9473,0,24.2822,2.3784,34.0059,7.1362c9.7227,4.7578,17.2881,11.479,22.6973,20.1621
		c5.4072,8.6841,8.1113,18.875,8.1113,30.5742v0.1558c0,11.8042-2.7041,22.0728-8.1113,30.8086
		c-5.4092,8.7354-12.9609,15.4697-22.6582,20.2007C1212.1279,122.1919,1200.7793,124.5576,1187.7812,124.5576z M1187.7812,118.2397
		c11.4912,0,21.5654-2.1445,30.2236-6.4346c8.6572-4.2896,15.3906-10.3076,20.2002-18.0557
		c4.8096-7.7476,7.2148-16.8472,7.2148-27.2988v-0.1558c0-10.5024-2.418-19.5894-7.2539-27.2593
		c-4.835-7.6694-11.582-13.6362-20.2393-17.9004c-8.6582-4.2627-18.707-6.3955-30.1455-6.3955
		c-11.4922,0-21.5537,2.1328-30.1846,6.3955c-8.6318,4.2642-15.3652,10.2446-20.2002,17.939
		c-4.8359,7.6963-7.2539,16.769-7.2539,27.2207v0.1558c0,10.5039,2.418,19.6294,7.2539,27.3765
		c4.835,7.7485,11.582,13.7544,20.2393,18.0171C1166.2939,116.1084,1176.3418,118.2397,1187.7812,118.2397z"/>
	<path d="M1323.7842,124.5576c-9.4639,0-18.083-1.4038-25.8555-4.2119c-7.7744-2.8076-14.4678-6.7979-20.084-11.9722
		c-5.6152-5.1733-9.958-11.374-13.0254-18.6021c-3.0684-7.2266-4.6016-15.1821-4.6016-23.8667V65.749
		c0-11.4912,2.6514-21.5391,7.9551-30.1455c5.3037-8.605,12.7256-15.2871,22.2686-20.0449
		c9.541-4.7578,20.6553-7.1362,33.3428-7.1362c9.8789,0,18.8613,1.4561,26.9473,4.3677c8.085,2.9126,14.9482,7.0464,20.5908,12.4014
		c5.6416,5.356,9.6582,11.7515,12.0508,19.1865l0.1553,0.624h-7.0967l-0.2344-0.5459
		c-3.9521-9.4629-10.5566-16.7812-19.8105-21.9556c-9.2559-5.1733-20.123-7.7607-32.6025-7.7607
		c-11.3359,0-21.2412,2.1191-29.7168,6.3564c-8.4756,4.2388-15.0527,10.1665-19.7324,17.7832
		c-4.6797,7.6182-7.0195,16.5742-7.0195,26.8696v0.1558c0,7.7485,1.3516,14.8325,4.0557,21.2539
		c2.7031,6.4224,6.5635,11.96,11.582,16.6133c5.0176,4.6538,10.9844,8.2285,17.9004,10.7241
		c6.915,2.4961,14.5586,3.7437,22.9307,3.7437c10.5029,0,19.7061-1.8325,27.6104-5.4985
		c7.9033-3.6655,14.1172-8.7612,18.6406-15.2871c4.5244-6.5249,6.9424-14.104,7.2539-22.7358l-0.0781-1.7939h-53.2705v-6.0054
		h60.3682v6.0054c0,7.6436-1.4424,14.6377-4.3281,20.981c-2.8867,6.3447-6.9941,11.8042-12.3242,16.3789
		c-5.3301,4.5762-11.7119,8.0996-19.1475,10.5684C1341.0723,123.3218,1332.832,124.5576,1323.7842,124.5576z"/>
	<path d="M1435.6016,122.7637V76.3564l-53.4268-66.1406h8.4238l48.4346,59.9009h0.3125l48.4355-59.9009h8.3447l-53.4268,66.1406
		v46.4072H1435.6016z"/>
</g>
</svg>
