<?xml version="1.0" encoding="utf-8"?>
<!-- Generator: Adobe Illustrator 28.3.0, SVG Export Plug-In . SVG Version: 6.00 Build 0)  -->
<svg version="1.1" id="Layer_1" xmlns="http://www.w3.org/2000/svg" xmlns:xlink="http://www.w3.org/1999/xlink" x="0px" y="0px"
	 viewBox="0 0 1104 142" style="enable-background:new 0 0 1104 142;" xml:space="preserve">
<g>
	<path d="M35.3345,71.085c0-30.2593-0.3906-39.8252-1.1714-42.9487c-1.3667-5.4658-4.6855-6.6372-21.4741-7.4185l-7.8091-0.3901
		c-0.9761-3.1235-1.3667-9.1753,0-11.1274c6.833-0.1953,25.769-0.5859,51.7334-0.5859c30.2593,0,81.0171,0.3906,89.2163,0.5859
		c0.9761,2.5376,0.3901,8.98-0.1953,10.3467l-39.2393,0.5854C64.4224,20.7178,55.0518,21.499,53.2949,26.77
		c-1.1714,3.5137-1.3667,13.0796-1.3667,24.793c0,54.6616,1.5615,81.6021,1.5615,81.6021
		c-4.2944,0.7812-15.4224,0.9766-19.3267,0.1953C34.1631,133.3604,35.3345,103.2964,35.3345,71.085z"/>
	<path d="M116.7427,29.1123c35.1396,0,39.2393,13.6655,39.2393,56.6143c0,40.0205-10.5415,48.8052-37.4824,48.8052
		c-30.6494,0-37.6772-11.7134-37.6772-53.6855C80.8223,38.8735,89.6069,29.1123,116.7427,29.1123z M101.3203,111.6909
		c1.9521,3.9043,5.8564,5.271,16.5938,5.271c12.6895,0,15.6177-0.9761,17.5698-4.8804c2.1475-4.2949,2.9282-12.6895,2.9282-33.1875
		c0-13.6655-0.9761-24.4028-2.9282-28.3071s-5.4663-5.271-14.8369-5.271c-12.4941,0-17.3745,1.3667-19.3267,5.271
		c-1.7568,3.709-2.5381,15.6177-2.5381,34.1636C98.7822,99.3921,99.3682,107.7866,101.3203,111.6909z"/>
	<path d="M204.8071,55.4673c0,44.9009,1.562,77.6978,1.562,77.6978c-4.6855,0.9766-15.0322,1.3667-18.9365,0.1953
		c0,0,0.7808-30.064,0.7808-62.2754c0-28.3071-0.3906-39.6299-1.562-43.1436c-2.1475-6.4424-5.2705-6.833-59.1519-7.4185
		l-33.3828-0.3906c-0.5854-1.3667-1.1714-8.1992-0.1948-10.7373c6.2471-0.1948,57.9805-0.7808,104.8335-0.7808
		c15.2271,0,25.769,0.1953,36.1157,0.5859c1.3667,1.9521,0.9761,8.0039,0,11.1274l-9.7607,0.3901
		c-15.4229,0.5859-17.9604,2.3428-19.1318,7.0283C205.0024,31.6504,204.8071,43.7539,204.8071,55.4673z"/>
	<path d="M306.4585,105.6392c5.0757,15.813,5.8564,18.1553,34.1636,18.1553c18.5459,0,33.3828-1.9521,33.3828-1.9521
		c0.9761,2.9282,0.7808,9.7612,0,10.7373c0,0-19.5225,2.9282-41.9727,2.9282c-35.1396,0-40.0205-2.9282-44.1201-18.5459
		l-5.0757-19.9126c-1.5615-5.8564-3.3188-6.2471-14.4463-6.2471h-0.9761c-15.6177,0-19.1318,1.1714-20.498,6.6377
		c-2.9282,11.5181-5.6616,35.1396-5.6616,35.1396c-1.5615,0.1953-1.9521,0.1953-4.2949,0.1953
		c-6.4419,0-14.6416-0.3906-17.3745-1.1714c11.1274-38.0684,21.4741-78.0884,32.0161-122.0132
		c4.2949-0.3901,9.9565-0.7808,15.2275-0.7808s10.1514,0.3906,13.0796,0.7808c6.0518,24.9883,15.2275,60.5186,23.6216,86.8735
		L306.4585,105.6392z M270.7329,42.7778c-2.5381-9.7607-3.5142-13.6655-5.8564-13.6655c-2.7334,0-4.1001,5.4663-6.6377,15.2275
		l-5.271,20.8887c-0.9761,4.0996-1.7568,7.0278-1.7568,8.98c0,4.4902,2.5376,4.6855,13.2749,4.6855h0.9761
		c8.7852,0,12.6895-0.1953,12.6895-4.8809c0-1.9521-0.5859-3.9043-1.562-8.1992L270.7329,42.7778z"/>
	<path d="M351.458,9.395c0,0-1.3662,26.1597-1.3662,64.228c0,12.689,0.5854,17.3745,2.1475,20.498
		c1.3662,2.7329,4.2949,3.9043,13.4702,3.9043c11.7134,0,21.8647-0.7808,21.8647-0.7808
		c0.5854,1.7568,0.7808,10.9321,0.1953,13.4702c-34.7495,0-55.8335,1.9521-55.8335,1.9521s0.9761-22.0601,0.9761-47.4385
		c0-42.9487-1.1714-55.8335-1.1714-55.8335C337.207,8.4189,348.5298,8.4189,351.458,9.395z"/>
	<path d="M447.7007,71.085c0-30.2593-0.3906-39.8252-1.1714-42.9487c-1.3667-5.4658-4.6855-6.6372-21.4741-7.4185l-7.8091-0.3901
		c-0.9761-3.1235-1.3667-9.1753,0-11.1274c6.833-0.1953,25.769-0.5859,40.9966-0.5859c17.5698,0,40.02,0.3906,48.2192,0.5859
		c0.9761,2.5376,0.3906,9.3701-0.1948,10.7368l-13.8608,0.3906c-22.2554,0.5854-25.3789,1.1714-26.9404,5.8564
		c-1.1714,3.5142-1.1714,13.6655-1.1714,25.3789c0,54.6616,1.5615,81.6021,1.5615,81.6021
		c-4.2944,0.7812-15.4224,0.9766-19.3267,0.1953C446.5293,133.3604,447.7007,103.2964,447.7007,71.085z"/>
	<path d="M501.4653,29.6982c0.5859,3.1235,0,13.2749-0.9761,15.0317c-2.5376,0.9761-16.3984,0.5859-20.8887-0.3901
		c-0.3901-2.9282-0.3901-11.5181,0.5859-14.6416C487.019,28.7222,497.3657,28.9175,501.4653,29.6982z M498.3418,132.5796
		c-2.9282,0.9761-16.0078,0.9761-17.3745,0.5854c0,0,0.1953-24.0117,0.1953-40.606c0-16.5938-0.5859-40.9961-0.5859-40.9961
		c3.5142-1.3667,14.6416-1.3667,18.5459-0.9761L498.3418,132.5796z"/>
	<path d="M617.271,131.9941c0,0-7.8091,2.5376-25.3789,2.5376c-22.4507,0-30.4546-4.2949-30.4546-21.4741
		c0-7.8091,1.1714-18.5459,1.1714-29.2832c0-13.6655-4.6851-22.4507-12.8848-22.4507c-3.5137,0-5.271,1.3667-9.7607,6.2471
		l-4.8804,5.271c-3.9048,4.2949-5.4663,7.0283-5.4663,15.813c0,33.1875,1.1714,43.9248,1.1714,43.9248
		c-3.9048,1.3667-13.8608,1.9521-19.5225,0.9761c0.3906-14.6416,1.3667-41.9727,1.3667-62.4707s-0.9761-44.9009-1.7568-61.4946
		c7.2231-0.1953,15.4224-0.3901,21.0835,0.5859c0,0-1.3662,14.0557-1.3662,43.9243c0,2.3428,0.5854,2.9287,1.5615,2.9287
		s2.3428-0.7812,4.8809-3.5142l38.8486-43.9248c2.9287-0.9761,17.9604,0,19.5225,0.9761l-29.6738,30.2593
		c-5.0757,5.0757-6.8325,7.0278-6.8325,8.7852c0,1.3662,0.5854,1.9521,4.4897,3.9043
		c13.6655,6.8325,17.9604,15.6177,17.9604,29.2832c0,6.8325-0.3906,13.6655-0.3906,24.4023
		c0,12.6895,3.9048,15.2275,19.5225,15.2275c9.7607,0,17.3745-1.1714,17.3745-1.1714
		C618.8325,123.209,618.2471,131.0176,617.271,131.9941z"/>
	<path d="M620.7847,22.4751c-4.4897,0.9761-18.3506,1.3662-20.8887,0.3901c-0.9761-1.7568-1.5615-9.3706-0.9761-12.4941
		c4.6855-0.3901,14.2515-1.1709,21.084-0.1948C620.98,13.2998,620.98,19.5469,620.7847,22.4751z M618.6372,114.0337
		c-6.8325,0.5854-16.3984,0-17.7651-0.3906c0,0,0.3906-19.1313,0.3906-35.7251c0-26.355-0.9761-47.2437-0.9761-47.2437
		c3.9043-0.9761,15.4224-1.3667,19.3267-0.1953L618.6372,114.0337z"/>
	<path d="M706.8745,7.6382c29.6738,0,41.9727,12.6895,42.168,68.3271c0,45.877-12.4941,58.5664-40.4106,58.5664
		c-32.2119,0-40.606-12.6895-40.606-63.4468C667.8306,20.3276,680.52,7.6382,706.8745,7.6382z M689.5,113.0576
		c1.9521,3.9043,6.8325,5.4658,16.5938,5.4658c14.6416,0,19.3267-0.9761,21.2793-4.8804
		c2.1475-4.2949,2.5376-19.1313,2.5376-43.5342c0-21.4741-0.5854-33.1875-2.5376-37.0918
		c-1.9526-3.9048-8.5898-4.2949-17.375-4.2949c-14.6416,0-18.5459,1.3662-20.498,5.271c-1.7568,3.709-2.5381,19.522-2.5381,43.9248
		C686.9619,98.416,687.5479,109.1533,689.5,113.0576z"/>
	<path d="M759.6821,133.9463c0,0,0.1953-16.9844,0.1953-43.3394c0-54.6616-1.562-78.4785-1.562-78.4785
		c2.3428-1.3667,19.522-1.9521,22.6455-1.3667c10.7373,25.1836,26.1597,56.8091,39.8252,82.188
		c1.3667,2.5381,2.1475,3.7095,4.0996,3.7095c1.3667,0,2.1475-0.1953,2.3428-2.9287c0.1953-2.7329,0.3906-11.3228,0.3906-21.0835
		c0-27.3311-2.5381-62.0806-2.5381-62.0806c2.5381-0.1953,12.6895-0.5854,18.5459,0c0,0-0.7808,35.1396-0.7808,82.9688
		c0,31.2354,0.3906,39.0444,0.3906,39.0444c-2.1475,0.9761-19.1318,1.3667-24.5981,0
		c-12.4941-27.5264-24.0122-51.7334-37.6777-79.0645c-1.9521-3.9043-2.5376-4.4902-4.2944-4.4902
		c-1.1714,0-2.1475,0.5859-2.1475,3.1235c0,67.7417,0.7808,81.4072,0.7808,81.4072
		C773.7378,133.9463,763.001,134.3364,759.6821,133.9463z"/>
	<path d="M876.561,9.5903c0,0-1.9526,43.9248-1.9526,81.0166c0,17.5698,0.5859,23.0361,3.9048,26.355
		c4.2949,4.2949,13.2749,4.8804,22.0601,4.8804c10.7368,0,19.7173-0.9761,19.7173-0.9761c0.5854,1.562,0.9761,10.542,0.3901,13.0801
		c0,0-7.2231-0.3906-32.6016-0.3906c-15.6182,0-31.8213,0.9761-31.8213,0.9761s0.7808-20.498,0.7808-45.877
		c0-62.4707-1.5615-78.0884-1.5615-78.0884C860.9434,9.5903,869.728,9.2002,876.561,9.5903z"/>
	<path d="M923.1792,22.4751c-4.4897,0.9761-18.3506,1.3662-20.8887,0.3901c-0.9761-1.7568-1.5615-9.3706-0.9761-12.4941
		c4.6855-0.3901,14.2515-1.1709,21.084-0.1948C923.3745,13.2998,923.3745,19.5469,923.1792,22.4751z M921.0317,114.0337
		c-6.8325,0.5854-16.3984,0-17.7651-0.3906c0,0,0.3906-19.1313,0.3906-35.7251c0-26.355-0.9761-47.2437-0.9761-47.2437
		c3.9043-0.9761,15.4224-1.3667,19.3267-0.1953L921.0317,114.0337z"/>
	<path d="M935.106,133.9463c0,0,0.1953-16.9844,0.1953-43.3394c0-54.6616-1.562-78.4785-1.562-78.4785
		c2.3428-1.3667,19.522-1.9521,22.6455-1.3667c10.7373,25.1836,26.1597,56.8091,39.8252,82.188
		c1.3667,2.5381,2.1475,3.7095,4.0996,3.7095c1.3662,0,2.1475-0.1953,2.3428-2.9287c0.1953-2.7329,0.3906-11.3228,0.3906-21.0835
		c0-27.3311-2.5381-62.0806-2.5381-62.0806c2.5381-0.1953,12.6895-0.5854,18.5459,0c0,0-0.7812,35.1396-0.7812,82.9688
		c0,31.2354,0.3906,39.0444,0.3906,39.0444c-2.1475,0.9761-19.1309,1.3667-24.5977,0
		c-12.4941-27.5264-24.0122-51.7334-37.6777-79.0645c-1.9521-3.9043-2.5376-4.4902-4.2944-4.4902
		c-1.1714,0-2.1475,0.5859-2.1475,3.1235c0,67.7417,0.7808,81.4072,0.7808,81.4072
		C949.1616,133.9463,938.4248,134.3364,935.106,133.9463z"/>
	<path d="M1048.0215,40.8257c0,9.7612,0.3906,17.1797,1.3662,19.1318c1.1719,2.3423,4.4902,2.7329,22.0605,2.7329
		c13.665,0,22.2549-0.3906,22.2549-0.3906c0.5859,3.5142,0.5859,7.8091,0.3906,12.104l-22.6455,0.3901
		c-13.666,0.1953-16.9844,0.5859-18.5459,3.7095c-0.9766,1.9521-1.5625,6.6377-1.5625,15.4224
		c0,12.6895,0.5859,20.6934,1.5625,22.6455c1.1709,2.3428,2.9277,3.1235,16.5938,3.1235c13.665,0,25.1826-0.9761,25.1826-0.9761
		c0.3906,4.4902-0.1943,11.3228-0.7803,13.8608c-45.877,0-63.252,0.3906-63.252,0.3906s1.7568-30.2593,1.7568-56.6143
		c0-41.9727-1.1709-66.7656-1.1709-66.7656s28.1113,0,61.8848-0.9761c0.7812,4.6855,0.1953,13.6655-0.1953,14.6416
		c0,0-8.7852-0.5854-18.5459-0.5854c-18.5459,0-23.8164,0.7808-24.9883,3.1235
		C1048.2168,28.1362,1048.0215,32.041,1048.0215,40.8257z"/>
</g>
</svg>
