<?xml version="1.0" encoding="UTF-8"?>
<svg id="Layer_1" data-name="Layer 1" xmlns="http://www.w3.org/2000/svg" version="1.1" viewBox="0 0 1507.2 233.6">
  <defs>
    <style>
      .cls-1 {
        fill: #000;
        stroke-width: 0px;
      }
    </style>
  </defs>
  <g>
    <path class="cls-1" d="M62.9,124.3V18H10.9v-6.2h111.1v6.2h-52v106.3h-7Z"/>
    <path class="cls-1" d="M185.2,126.1c-12.9,0-24.2-2.4-33.9-7.1-9.7-4.7-17.3-11.5-22.7-20.2-5.4-8.7-8.1-19-8.1-30.8v-.2c0-11.8,2.7-22,8.1-30.6,5.4-8.7,13-15.4,22.7-20.1,9.7-4.8,21-7.1,33.9-7.1s24.3,2.4,34,7.1c9.7,4.8,17.3,11.5,22.7,20.2,5.4,8.7,8.1,18.9,8.1,30.6v.2c0,11.8-2.7,22.1-8.1,30.8-5.4,8.7-13,15.5-22.7,20.2-9.7,4.7-21,7.1-34,7.1ZM185.2,119.8c11.5,0,21.6-2.1,30.2-6.4,8.7-4.3,15.4-10.3,20.2-18.1,4.8-7.7,7.2-16.8,7.2-27.3v-.2c0-10.5-2.4-19.6-7.3-27.3-4.8-7.7-11.6-13.6-20.2-17.9-8.7-4.3-18.7-6.4-30.1-6.4s-21.6,2.1-30.2,6.4c-8.6,4.3-15.4,10.2-20.2,17.9-4.8,7.7-7.3,16.8-7.3,27.2v.2c0,10.5,2.4,19.6,7.3,27.4,4.8,7.7,11.6,13.8,20.2,18,8.7,4.3,18.7,6.4,30.1,6.4Z"/>
    <path class="cls-1" d="M300.5,124.3V18h-52v-6.2h111.1v6.2h-52v106.3h-7Z"/>
    <path class="cls-1" d="M344.6,124.3l57.3-112.5h5.8v7.6h-2l-53.6,105h-7.6ZM367.3,87.2l2.9-6h71.1l2.8,6h-76.7ZM459.3,124.3l-53.5-105v-7.6h3.7l57.4,112.5s-7.6,0-7.6,0Z"/>
    <path class="cls-1" d="M475.8,124.3V11.8h7v106.3h79.4v6.2h-86.4Z"/>
    <path class="cls-1" d="M617.6,124.3V11.8h8.1l57.6,104.6h.4l57.5-104.6h8.1v112.5h-6.8V23.6h-3.6l8.3-9.4-60.5,110.1h-6.3l-60.5-110.1,8.2,9.4h-3.5v100.8h-6.9Z"/>
    <path class="cls-1" d="M766.9,124.3V11.8h7v112.5s-7,0-7,0Z"/>
    <path class="cls-1" d="M783.6,124.3l54.8-58.3-2.3,5.1v-3.1l-52.4-56.2h9l48,51.6h3.4l-5.1,2.4,50.3-54h9l-52.6,56.2v3.1l-2.3-5.2,54.6,58.5h-9l-48-51.3h-3.3l5.1-2.3-50.5,53.7h-8.8Z"/>
    <path class="cls-1" d="M961.6,126.1c-12.9,0-24.2-2.4-33.9-7.1-9.7-4.7-17.3-11.5-22.7-20.2-5.4-8.7-8.1-19-8.1-30.8v-.2c0-11.8,2.7-22,8.1-30.6,5.4-8.7,13-15.4,22.7-20.1,9.7-4.8,21-7.1,33.9-7.1s24.3,2.4,34,7.1c9.7,4.8,17.3,11.5,22.7,20.2,5.4,8.7,8.1,18.9,8.1,30.6v.2c0,11.8-2.7,22.1-8.1,30.8-5.4,8.7-13,15.5-22.7,20.2-9.7,4.7-21,7.1-34,7.1ZM961.6,119.8c11.5,0,21.6-2.1,30.2-6.4,8.7-4.3,15.4-10.3,20.2-18.1,4.8-7.7,7.2-16.8,7.2-27.3v-.2c0-10.5-2.4-19.6-7.3-27.3-4.8-7.7-11.6-13.6-20.2-17.9-8.7-4.3-18.7-6.4-30.1-6.4s-21.6,2.1-30.2,6.4c-8.6,4.3-15.4,10.2-20.2,17.9-4.8,7.7-7.3,16.8-7.3,27.2v.2c0,10.5,2.4,19.6,7.3,27.4,4.8,7.7,11.6,13.8,20.2,18,8.7,4.3,18.7,6.4,30.1,6.4Z"/>
    <path class="cls-1" d="M1039,124.3V11.8h7v106.3h79.4v6.2h-86.4Z"/>
    <path class="cls-1" d="M1190.9,126.1c-12.9,0-24.2-2.4-33.9-7.1-9.7-4.7-17.3-11.5-22.7-20.2-5.4-8.7-8.1-19-8.1-30.8v-.2c0-11.8,2.7-22,8.1-30.6,5.4-8.7,13-15.4,22.7-20.1,9.7-4.8,21-7.1,33.9-7.1s24.3,2.4,34,7.1c9.7,4.8,17.3,11.5,22.7,20.2,5.4,8.7,8.1,18.9,8.1,30.6v.2c0,11.8-2.7,22.1-8.1,30.8-5.4,8.7-13,15.5-22.7,20.2-9.7,4.7-21,7.1-34,7.1ZM1190.9,119.8c11.5,0,21.6-2.1,30.2-6.4,8.7-4.3,15.4-10.3,20.2-18.1,4.8-7.7,7.2-16.8,7.2-27.3v-.2c0-10.5-2.4-19.6-7.3-27.3-4.8-7.7-11.6-13.6-20.2-17.9-8.7-4.3-18.7-6.4-30.1-6.4s-21.6,2.1-30.2,6.4c-8.6,4.3-15.4,10.2-20.2,17.9-4.8,7.7-7.3,16.8-7.3,27.2v.2c0,10.5,2.4,19.6,7.3,27.4,4.8,7.7,11.6,13.8,20.2,18,8.7,4.3,18.7,6.4,30.1,6.4Z"/>
    <path class="cls-1" d="M1326.9,126.1c-9.5,0-18.1-1.4-25.9-4.2-7.8-2.8-14.5-6.8-20.1-12-5.6-5.2-10-11.4-13-18.6-3.1-7.2-4.6-15.2-4.6-23.9v-.2c0-11.5,2.7-21.5,8-30.1,5.3-8.6,12.7-15.3,22.3-20,9.5-4.8,20.7-7.1,33.3-7.1s18.9,1.5,26.9,4.4c8.1,2.9,14.9,7,20.6,12.4,5.6,5.4,9.7,11.8,12.1,19.2l.2.6h-7.1l-.2-.5c-4-9.5-10.6-16.8-19.8-22-9.3-5.2-20.1-7.8-32.6-7.8s-21.2,2.1-29.7,6.4c-8.5,4.2-15.1,10.2-19.7,17.8-4.7,7.6-7,16.6-7,26.9v.2c0,7.7,1.4,14.8,4.1,21.3,2.7,6.4,6.6,12,11.6,16.6,5,4.7,11,8.2,17.9,10.7,6.9,2.5,14.6,3.7,22.9,3.7s19.7-1.8,27.6-5.5c7.9-3.7,14.1-8.8,18.6-15.3,4.5-6.5,6.9-14.1,7.3-22.7v-1.8h-53.3v-6h60.4v6c0,7.6-1.4,14.6-4.3,21-2.9,6.3-7,11.8-12.3,16.4-5.3,4.6-11.7,8.1-19.1,10.6-7.4,2.5-15.7,3.7-24.7,3.7Z"/>
    <path class="cls-1" d="M1438.8,124.3v-46.4l-53.4-66.1h8.4l48.4,59.9h.3l48.4-59.9h8.3l-53.4,66.1v46.4h-7.1Z"/>
  </g>
  <g>
    <path class="cls-1" d="M168.1,218.2v-62.2h52.6v5.7h-46v21.9h43v5.5h-43v23.4h46v5.7h-52.6Z"/>
    <path class="cls-1" d="M293.3,218.2v-62.2h6.4l54.9,58.7-8.2-5.6h3.1v-53.1h6.5v62.2h-6.4l-54.9-58.7,8.3,5.6h-3.1v53.1h-6.6Z"/>
    <path class="cls-1" d="M453.6,218.2v-56.4h-27.7v-5.8h62v5.8h-27.8v56.4h-6.6Z"/>
    <path class="cls-1" d="M557.8,218.2v-62.2h52.6v5.7h-46v21.9h43v5.5h-43v23.4h46v5.7h-52.6Z"/>
    <path class="cls-1" d="M683,218.2v-62.2h37.1c4.3,0,8,.7,11.1,2.2,3.1,1.5,5.5,3.6,7.2,6.3,1.7,2.7,2.5,6,2.5,9.7h0c0,4.6-1.2,8.4-3.7,11.5-2.5,3.1-6.1,5.2-10.9,6.3l16.5,26.1h-7.8l-15.6-25.2c-.2,0-.3,0-.5,0-.1,0-.3,0-.5,0h-28.9v25.2h-6.6ZM689.6,187.5h30.1c4.6,0,8.2-1.1,10.8-3.4,2.5-2.3,3.8-5.4,3.8-9.5h0c0-4.1-1.3-7.3-3.9-9.6-2.6-2.3-6.2-3.4-10.9-3.4h-29.9v25.9Z"/>
    <path class="cls-1" d="M813.2,218.2v-62.2h6.6v62.2h-6.6ZM816.5,195v-5.6h30.7c5.2,0,9.2-1.2,12-3.7s4.2-5.8,4.2-10.2h0c0-4.4-1.4-7.8-4.2-10.3-2.8-2.4-6.8-3.7-12-3.7h-30.7v-5.6h31.6c4.5,0,8.5.8,11.8,2.4s5.9,3.8,7.6,6.7c1.8,2.9,2.7,6.3,2.7,10.2h0c0,4-.9,7.5-2.7,10.4-1.8,2.9-4.4,5.2-7.7,6.8-3.3,1.6-7.2,2.4-11.7,2.4h-31.6Z"/>
    <path class="cls-1" d="M941.2,218.2v-62.2h37.1c4.3,0,8,.7,11.1,2.2s5.5,3.6,7.2,6.3,2.5,6,2.5,9.7h0c0,4.6-1.2,8.4-3.7,11.5-2.5,3.1-6.1,5.2-10.9,6.3l16.5,26.1h-7.8l-15.6-25.2c-.2,0-.3,0-.5,0s-.3,0-.5,0h-28.9v25.2h-6.6ZM947.7,187.5h30.1c4.6,0,8.2-1.1,10.8-3.4s3.8-5.4,3.8-9.5h0c0-4.1-1.3-7.3-3.9-9.6-2.6-2.3-6.2-3.4-10.9-3.4h-29.9v25.9Z"/>
    <path class="cls-1" d="M1071.3,218.2v-62.2h6.6v62.2h-6.6Z"/>
    <path class="cls-1" d="M1180.9,219.4c-6.3,0-11.8-.7-16.4-2.1-4.6-1.4-8.2-3.4-10.8-6.1-2.6-2.6-4.1-5.8-4.5-9.5v-.6c0,0,6.5,0,6.5,0v.5c.6,2.5,1.9,4.7,4,6.5,2.1,1.8,4.9,3.2,8.6,4.1,3.6.9,8,1.4,13.1,1.4s8.4-.5,11.6-1.5c3.2-1,5.6-2.4,7.3-4.2,1.7-1.9,2.5-4.1,2.5-6.7h0c0-3.4-1.3-5.9-3.8-7.5-2.5-1.7-6.8-2.8-12.8-3.5l-14.4-1.3c-7.2-.8-12.5-2.5-16-5.1-3.4-2.6-5.2-6.3-5.2-11.1h0c0-3.7,1.1-6.8,3.4-9.4,2.3-2.6,5.5-4.7,9.6-6.1,4.1-1.5,9-2.2,14.6-2.2s11,.7,15.4,2.2,7.7,3.5,10.2,6.2c2.5,2.7,4,5.9,4.4,9.6v.4s-6.5,0-6.5,0v-.4c-.7-2.6-1.9-4.9-3.8-6.6s-4.5-3.1-7.8-4.1c-3.3-.9-7.3-1.4-11.9-1.4s-8.1.5-11.2,1.4c-3.1.9-5.5,2.3-7.1,4-1.6,1.7-2.5,3.8-2.5,6.3h0c0,3.1,1.3,5.5,3.8,7.2,2.5,1.7,6.6,2.8,12.1,3.4l14.4,1.3c5.1.6,9.3,1.5,12.5,2.9,3.2,1.3,5.6,3.1,7.1,5.4,1.5,2.2,2.3,5,2.3,8.3h0c0,3.9-1.1,7.2-3.4,9.9-2.3,2.7-5.5,4.8-9.7,6.3-4.2,1.5-9.4,2.2-15.5,2.2Z"/>
    <path class="cls-1" d="M1280.6,218.2v-62.2h52.6v5.7h-46v21.9h43v5.5h-43v23.4h46v5.7h-52.6Z"/>
  </g>
</svg>